<svg id="Icons" height="512" viewBox="0 0 74 74" width="512" xmlns="http://www.w3.org/2000/svg"><path d="m55.809 19.22a1 1 0 0 1 -.977-.793 16.975 16.975 0 0 0 -.86-2.844 1 1 0 0 1 1.856-.746 19.307 19.307 0 0 1 .961 3.176 1 1 0 0 1 -.772 1.186 1.064 1.064 0 0 1 -.208.021z"/><path d="m37 62.88a1 1 0 0 1 -.833-.447c-.039-.059-3.926-5.931-8.153-13.264-7.461-12.932-11.244-21.995-11.244-26.939a20.247 20.247 0 0 1 25.543-19.525 1 1 0 1 1 -.527 1.93 18.244 18.244 0 0 0 -23.016 17.595c0 4.524 3.8 13.494 10.976 25.94 3.035 5.265 5.892 9.768 7.254 11.878 1.362-2.11 4.219-6.613 7.254-11.878 5.108-8.849 8.6-16.175 10.108-21.188a1 1 0 1 1 1.915.576c-1.57 5.232-5.033 12.5-10.291 21.612-4.227 7.332-8.114 13.2-8.153 13.263a1 1 0 0 1 -.833.447z"/><path d="m51.19 10.24a1 1 0 0 1 -.732-.318 18.631 18.631 0 0 0 -2.058-1.908 1 1 0 0 1 1.242-1.568 20.679 20.679 0 0 1 2.281 2.113 1 1 0 0 1 -.732 1.681z"/><path d="m37 35.108a13.091 13.091 0 1 1 13.091-13.09 13.105 13.105 0 0 1 -13.091 13.09zm0-24.181a11.091 11.091 0 1 0 11.091 11.091 11.1 11.1 0 0 0 -11.091-11.091z"/><path d="m58.313 72h-42.626a1 1 0 0 1 -.966-1.259l6-22.328a1 1 0 0 1 .966-.741h7.206a1 1 0 0 1 0 2h-6.44l-5.462 20.328h40.018l-5.46-20.328h-6.44a1 1 0 0 1 0-2h7.206a1 1 0 0 1 .966.741l6 22.328a1 1 0 0 1 -.968 1.259z"/></svg>